<?xml version="1.0" encoding="UTF-8" standalone="no"?>
<!DOCTYPE svg PUBLIC "-//W3C//DTD SVG 1.1//EN" "http://www.w3.org/Graphics/SVG/1.1/DTD/svg11.dtd">
<svg width="100%" height="100%" viewBox="0 0 220 140" version="1.1" xmlns="http://www.w3.org/2000/svg" xmlns:xlink="http://www.w3.org/1999/xlink" xml:space="preserve" xmlns:serif="http://www.serif.com/" style="fill-rule:evenodd;clip-rule:evenodd;stroke-linejoin:round;stroke-miterlimit:2;">
    <g transform="matrix(1,0,0,1,-166.788251,-41.997762)">
        <g id="Artboard8" transform="matrix(1,0,0,1,-161.938883,41.997762)">
            <rect x="328.727" y="0" width="220" height="140" style="fill:none;"/>
            <g transform="matrix(1,0,0,1,161.938883,-41.997762)">
                <rect x="166.788" y="41.998" width="220" height="140" style="fill:white;"/>
            </g>
            <g transform="matrix(1.32558,0,0,1.32558,457.430216,9.714961)">
                <path d="M41.707,13.793C41.895,13.98 42,14.235 42,14.5L42,43.901C42,46.161 40.155,48 37.887,48L12.113,48C9.845,48 8,46.161 8,43.901L8,5.479C8,3.561 9.566,2 11.491,2L29.5,2C29.766,2 30.02,2.105 30.207,2.293L41.707,13.793ZM25.924,28.762L15,23.3L15,34.224L25.924,28.762ZM24.873,34.224L35.797,39.686L35.797,28.762L24.873,34.224ZM31.667,14L39.086,14L30,4.914L30,12.333C30,13.252 30.748,14 31.667,14Z"/>
            </g>
            <g transform="matrix(2.37986,0,0,2.37986,-273.575379,-103.29319)">
                <text x="259.566px" y="77.675px" style="font-family:'SourceCodePro-Black', 'Source Code Pro', monospace;font-weight:900;font-size:12px;">Data</text>
                <g transform="matrix(12,0,0,12,338.766359,87.092062)">
                </g>
                <text x="259.566px" y="87.092px" style="font-family:'SourceCodePro-Black', 'Source Code Pro', monospace;font-weight:900;font-size:12px;">TRANSPORTER</text>
            </g>
            <g transform="matrix(1,0,0,1.114413,161.938883,-64.252617)">
                <path d="M377.946,163.501L377.946,170.785C377.946,172.795 376.127,174.426 373.887,174.426L179.864,174.426C177.625,174.426 175.806,172.795 175.806,170.785L175.806,163.501C175.806,161.491 177.625,159.859 179.864,159.859L373.887,159.859C376.127,159.859 377.946,161.491 377.946,163.501Z"/>
            </g>
            <g transform="matrix(1.147887,0,0,1.147887,121.317795,46.890196)">
                <g transform="matrix(12,0,0,12,359.119317,69.368806)">
                </g>
                <text x="193.519px" y="69.369px" style="font-family:'SourceCodePro-Semibold', 'Source Code Pro', monospace;font-weight:600;font-size:12px;fill:white;">FREE GOOGLE SHEET ADDON</text>
            </g>
        </g>
    </g>
</svg>
