<?xml version="1.0" encoding="UTF-8" standalone="no"?><!DOCTYPE svg PUBLIC "-//W3C//DTD SVG 1.1//EN" "http://www.w3.org/Graphics/SVG/1.1/DTD/svg11.dtd"><svg width="100%" height="100%" viewBox="0 0 209 209" version="1.1" xmlns="http://www.w3.org/2000/svg" xmlns:xlink="http://www.w3.org/1999/xlink" xml:space="preserve" xmlns:serif="http://www.serif.com/" style="fill-rule:evenodd;clip-rule:evenodd;stroke-linejoin:round;stroke-miterlimit:2;"><rect id="Artboard6" x="0" y="0" width="208.333" height="208.333" style="fill:none;"/><path d="M173.779,57.471c0.783,0.779 1.221,1.842 1.221,2.946l0,122.504c0,9.417 -7.687,17.079 -17.137,17.079l-107.392,0c-9.45,0 -17.137,-7.662 -17.137,-17.079l0,-160.092c0,-7.992 6.525,-14.496 14.546,-14.496l75.037,0c1.108,0 2.167,0.437 2.946,1.221l47.917,47.917Zm-65.762,62.371l-45.517,-22.758l0,45.517l45.517,-22.758Zm-4.38,22.758l45.517,22.758l0,-45.517l-45.517,22.758Zm28.309,-84.267l30.912,-0l-37.858,-37.858l0,30.913c0,3.829 3.117,6.946 6.946,6.946Z"/></svg>