<?xml version="1.0" encoding="UTF-8" standalone="no"?><!DOCTYPE svg PUBLIC "-//W3C//DTD SVG 1.1//EN" "http://www.w3.org/Graphics/SVG/1.1/DTD/svg11.dtd"><svg width="100%" height="100%" viewBox="0 0 50 50" version="1.1" xmlns="http://www.w3.org/2000/svg" xmlns:xlink="http://www.w3.org/1999/xlink" xml:space="preserve" xmlns:serif="http://www.serif.com/" style="fill-rule:evenodd;clip-rule:evenodd;stroke-miterlimit:1.5;"><rect id="Artboard1" x="0" y="0" width="50" height="50" style="fill:none;"/><g id="Artboard11" serif:id="Artboard1"><g><path d="M41.707,13.793L30.207,2.293C30.02,2.105 29.766,2 29.5,2L11.491,2C9.566,2 8,3.561 8,5.479L8,43.901C8,46.161 9.845,48 12.113,48L37.887,48C40.155,48 42,46.161 42,43.901L42,14.5C42,14.235 41.895,13.98 41.707,13.793ZM31.667,14C30.748,14 30,13.252 30,12.333L30,4.914L39.086,14L31.667,14Z" style="fill-rule:nonzero;"/><g><path d="M30.997,22.4L35.797,26L30.997,29.6L30.997,22.4Z" style="fill:#fff;"/><path d="M15,26L31.957,26" style="fill:none;stroke:#fff;stroke-width:2px;"/><path d="M18.961,32.28L14.161,35.88L18.961,39.48L18.961,32.28Z" style="fill:#fff;"/><path d="M18.001,35.88L35,35.88" style="fill:none;stroke:#fff;stroke-width:2px;"/></g></g></g></svg>